# xmcd
#
# Track frame offsets:
#  150
#  16145
#  28774
#  37452
#  47697
#  70301
#  86735
#  106014
#  125146
#  146268
#  162818
#  175530
#  186939
#  204243
#
# Disc length: 2984 seconds
#
# Revision: 0
# Processed by: cddbd v1.5.2PL0 Copyright (c) Steve Scherf et al.
# Submitted via: Collectorz.com_Music_Collector 6.11
#
DISCID=bb0ba60e
DTITLE=Nirvana - Nirvana
DYEAR=2002
DGENRE=Grunge
TTITLE0=You Know Youre Right
TTITLE1=About A Girl
TTITLE2=Been A Son
TTITLE3=Sliver
TTITLE4=Smells Like Teen Spirit
TTITLE5=Come as You Are
TTITLE6=Lithium
TTITLE7=In Bloom
TTITLE8=Heart Shaped Box
TTITLE9=Pennyroyal Tea
TTITLE10=Rape Me
TTITLE11=Dumb
TTITLE12=All Apologies
TTITLE13=The Man Who Sold the World
EXTD=
EXTT0=
EXTT1=
EXTT2=
EXTT3=
EXTT4=
EXTT5=
EXTT6=
EXTT7=
EXTT8=
EXTT9=
EXTT10=
EXTT11=
EXTT12=
EXTT13=
PLAYORDER=
